<svg width="130" height="115" viewBox="0 0 130 115" fill="none" xmlns="http://www.w3.org/2000/svg">
<g clip-path="url(#clip0_24_1403)">
<path d="M26.305 114.58H103.695C111.374 106.922 116.609 97.1581 118.736 86.5237C120.863 75.8894 119.786 64.8631 115.643 54.8407C111.5 44.8183 104.476 36.2507 95.4613 30.2224C86.4461 24.194 75.845 20.9762 65 20.9762C54.155 20.9762 43.5539 24.194 34.5388 30.2224C25.5236 36.2507 18.4999 44.8183 14.3567 54.8407C10.2135 64.8631 9.13731 75.8894 11.2643 86.5237C13.3912 97.1581 18.6257 106.922 26.305 114.58Z" fill="#C9E0FC"/>
<path d="M110.525 40.64V88.64H19.525V40.64C19.525 40.1909 19.7028 39.76 20.0194 39.4414C20.3361 39.1229 20.7659 38.9426 21.215 38.94H108.875C109.318 38.9505 109.739 39.1345 110.048 39.4525C110.356 39.7705 110.528 40.1969 110.525 40.64Z" fill="#1D2631"/>
<path d="M110.515 88.64V100.25C110.515 100.698 110.337 101.128 110.02 101.445C109.703 101.762 109.273 101.94 108.825 101.94H21.175C20.9531 101.94 20.7333 101.896 20.5283 101.811C20.3232 101.726 20.1369 101.602 19.98 101.445C19.8231 101.288 19.6986 101.102 19.6137 100.897C19.5287 100.692 19.485 100.472 19.485 100.25V88.64H110.515Z" fill="white"/>
<path d="M78.605 110.63L75.545 101.94H54.455L51.395 110.63H78.605Z" fill="white"/>
<path d="M84.515 114.58H45.515C45.515 112.46 47.515 110.72 49.935 110.58C51.935 110.51 78.135 110.51 80.125 110.58C82.565 110.72 84.515 112.46 84.515 114.58Z" fill="white"/>
<path d="M129.005 114.21H84.845C84.6663 113.09 84.0876 112.072 83.216 111.346C82.3445 110.62 81.2392 110.234 80.105 110.26C78.105 110.19 51.875 110.19 49.895 110.26C48.7613 110.236 47.6572 110.622 46.7861 111.348C45.915 112.074 45.3357 113.091 45.155 114.21H1.00501C0.950634 114.201 0.894972 114.204 0.841881 114.219C0.78879 114.234 0.739541 114.26 0.697547 114.295C0.655554 114.331 0.62182 114.375 0.598686 114.425C0.575551 114.475 0.563568 114.53 0.563568 114.585C0.563568 114.64 0.575551 114.695 0.598686 114.745C0.62182 114.795 0.655554 114.839 0.697547 114.875C0.739541 114.91 0.78879 114.936 0.841881 114.951C0.894972 114.966 0.950634 114.969 1.00501 114.96H129.005C129.094 114.945 129.175 114.9 129.233 114.831C129.292 114.762 129.324 114.675 129.324 114.585C129.324 114.495 129.292 114.408 129.233 114.339C129.175 114.27 129.094 114.225 129.005 114.21ZM45.885 114.21C46.072 113.293 46.5747 112.47 47.3056 111.886C48.0364 111.301 48.9492 110.991 49.885 111.01C51.885 110.94 78.065 110.94 80.035 111.01C80.9708 110.991 81.8836 111.301 82.6144 111.886C83.3453 112.47 83.848 113.293 84.035 114.21H45.885ZM108.825 102.32H21.175C20.626 102.32 20.0995 102.102 19.7113 101.714C19.3231 101.326 19.105 100.799 19.105 100.25V92.19C19.1196 92.1011 19.1653 92.0202 19.234 91.9618C19.3027 91.9035 19.3899 91.8715 19.48 91.8715C19.5701 91.8715 19.6573 91.9035 19.726 91.9618C19.7947 92.0202 19.8404 92.1011 19.855 92.19V100.25C19.8576 100.599 19.9975 100.934 20.2445 101.181C20.4915 101.427 20.8257 101.567 21.175 101.57H108.825C108.874 101.569 108.924 101.577 108.97 101.595C109.016 101.613 109.058 101.64 109.093 101.675C109.129 101.709 109.157 101.751 109.176 101.796C109.195 101.842 109.205 101.891 109.205 101.94C109.205 102.041 109.165 102.137 109.094 102.209C109.022 102.28 108.926 102.32 108.825 102.32Z" fill="#181818"/>
<path d="M65.005 97.25C66.0875 97.25 66.965 96.3725 66.965 95.29C66.965 94.2075 66.0875 93.33 65.005 93.33C63.9225 93.33 63.045 94.2075 63.045 95.29C63.045 96.3725 63.9225 97.25 65.005 97.25Z" fill="#B3D3F4"/>
<path d="M59.725 67.5H70.275C74.8924 67.5 79.3207 69.3343 82.5857 72.5993C85.8507 75.8643 87.685 80.2926 87.685 84.91V88.64H42.315V84.91C42.315 80.2926 44.1493 75.8643 47.4143 72.5993C50.6793 69.3343 55.1076 67.5 59.725 67.5Z" fill="#80B4FF"/>
<path d="M65.005 53.82H64.995C61.3831 53.82 58.455 56.7481 58.455 60.36V67.63C58.455 71.2419 61.3831 74.17 64.995 74.17H65.005C68.617 74.17 71.545 71.2419 71.545 67.63V60.36C71.545 56.7481 68.617 53.82 65.005 53.82Z" fill="#DCEFFF"/>
<path d="M77.765 53.97C79.7864 53.97 81.425 52.3314 81.425 50.31C81.425 48.2887 79.7864 46.65 77.765 46.65C75.7436 46.65 74.105 48.2887 74.105 50.31C74.105 52.3314 75.7436 53.97 77.765 53.97Z" fill="white"/>
<path d="M52.235 53.97C54.2564 53.97 55.895 52.3314 55.895 50.31C55.895 48.2887 54.2564 46.65 52.235 46.65C50.2136 46.65 48.575 48.2887 48.575 50.31C48.575 52.3314 50.2136 53.97 52.235 53.97Z" fill="white"/>
<path d="M65.005 66C61.7534 66 58.6351 64.7083 56.3359 62.4091C54.0367 60.1099 52.745 56.9916 52.745 53.74V38.39H77.255V53.74C77.255 56.9898 75.9647 60.1067 73.6677 62.4056C71.3706 64.7045 68.2548 65.9974 65.005 66Z" fill="white"/>
<path d="M76.865 38.98H76.855C76.242 38.98 75.745 39.4769 75.745 40.09V51.37C75.745 51.983 76.242 52.48 76.855 52.48H76.865C77.478 52.48 77.975 51.983 77.975 51.37V40.09C77.975 39.4769 77.478 38.98 76.865 38.98Z" fill="#FE6666"/>
<path d="M53.145 38.98H53.135C52.522 38.98 52.025 39.4769 52.025 40.09V51.37C52.025 51.983 52.522 52.48 53.135 52.48H53.145C53.7581 52.48 54.255 51.983 54.255 51.37V40.09C54.255 39.4769 53.7581 38.98 53.145 38.98Z" fill="#FE6666"/>
<path d="M81.875 35C81.8685 35.9455 81.6757 36.8805 81.3079 37.7515C80.94 38.6226 80.4041 39.4126 79.7309 40.0766C79.0576 40.7405 78.2602 41.2653 77.3842 41.6211C76.5081 41.9769 75.5705 42.1566 74.625 42.15H54.625C52.9117 42.15 51.2686 41.4694 50.0571 40.2579C48.8456 39.0464 48.165 37.4033 48.165 35.69C48.165 34.4779 48.6465 33.3155 49.5035 32.4585C50.3606 31.6015 51.523 31.12 52.735 31.12H66.405C66.4037 30.6766 66.4899 30.2373 66.6587 29.8273C66.8274 29.4172 67.0754 29.0446 67.3885 28.7306C67.7016 28.4166 68.0735 28.1674 68.483 27.9975C68.8926 27.8275 69.3316 27.74 69.775 27.74H74.625C75.5794 27.7347 76.5254 27.9189 77.4081 28.282C78.2907 28.6451 79.0925 29.1798 79.7669 29.8551C80.4414 30.5305 80.975 31.333 81.3368 32.2162C81.6987 33.0994 81.8816 34.0456 81.875 35Z" fill="#FE6666"/>
<path d="M19.485 70.78C26.3223 70.78 31.865 65.2373 31.865 58.4C31.865 51.5627 26.3223 46.02 19.485 46.02C12.6477 46.02 7.10501 51.5627 7.10501 58.4C7.10501 65.2373 12.6477 70.78 19.485 70.78Z" fill="white"/>
<path d="M9.89501 66.58C9.84265 66.5771 9.7915 66.5631 9.74496 66.539C9.69841 66.5149 9.65752 66.4811 9.62501 66.44C8.18839 64.6848 7.24723 62.5774 6.89904 60.3361C6.55085 58.0948 6.80828 55.8012 7.64468 53.6928C8.48107 51.5845 9.866 49.7382 11.656 48.3451C13.4459 46.9521 15.5758 46.063 17.825 45.77C17.8737 45.7629 17.9232 45.7657 17.9708 45.778C18.0184 45.7904 18.063 45.8121 18.1021 45.8419C18.1412 45.8717 18.174 45.9089 18.1985 45.9515C18.2231 45.9941 18.2389 46.0412 18.245 46.09C18.2535 46.1388 18.2518 46.1889 18.2401 46.237C18.2283 46.2852 18.2067 46.3304 18.1767 46.3698C18.1466 46.4093 18.1088 46.4421 18.0655 46.4662C18.0222 46.4903 17.9743 46.5052 17.925 46.51C15.0369 46.8862 12.3842 48.2999 10.4615 50.4876C8.53877 52.6752 7.47731 55.4875 7.47501 58.4C7.46064 61.1725 8.4197 63.8621 10.185 66C10.2466 66.0785 10.2748 66.1781 10.2636 66.2773C10.2524 66.3764 10.2026 66.4672 10.125 66.53C10.0551 66.5693 9.97495 66.5868 9.89501 66.58Z" fill="#181818"/>
<path d="M22.755 58.4L16.695 62.56V54.24L22.755 58.4Z" fill="#66E2B2"/>
<path d="M128.715 31.18H100.425V48.8H128.715V31.18Z" fill="#F9C041"/>
<path d="M102.965 46.93C102.913 46.9298 102.861 46.9191 102.813 46.8985C102.765 46.8778 102.721 46.8478 102.685 46.81C102.616 46.7391 102.577 46.644 102.577 46.545C102.577 46.446 102.616 46.3509 102.685 46.28L112.205 37.87C112.239 37.8346 112.281 37.8065 112.326 37.7873C112.372 37.7681 112.421 37.7582 112.47 37.7582C112.519 37.7582 112.568 37.7681 112.614 37.7873C112.659 37.8065 112.701 37.8346 112.735 37.87C112.804 37.9409 112.843 38.036 112.843 38.135C112.843 38.234 112.804 38.3291 112.735 38.4L103.205 46.81C103.142 46.8778 103.057 46.9205 102.965 46.93ZM126.175 46.93C126.084 46.9311 125.995 46.8991 125.925 46.84L116.405 38.43C116.359 38.4002 116.32 38.3609 116.29 38.3145C116.261 38.2682 116.242 38.216 116.234 38.1616C116.227 38.1072 116.231 38.0519 116.248 37.9994C116.264 37.9469 116.291 37.8985 116.327 37.8575C116.364 37.8166 116.409 37.784 116.459 37.7621C116.51 37.7402 116.564 37.7295 116.619 37.7307C116.674 37.7319 116.728 37.7449 116.777 37.769C116.827 37.793 116.87 37.8275 116.905 37.87L126.415 46.28C126.484 46.3509 126.523 46.446 126.523 46.545C126.523 46.644 126.484 46.7391 126.415 46.81C126.352 46.8771 126.267 46.9196 126.175 46.93Z" fill="#181818"/>
<path d="M128.705 31.18L114.565 43.67L100.435 31.18H128.705Z" fill="#FCD63F"/>
<path d="M26.375 0H10.205V10.6H26.375V0Z" fill="#C9E0FC"/>
<path d="M16.865 3.08002V7.52002L19.725 5.30002L16.865 3.08002Z" fill="#181818"/>
<path d="M66.965 2.40002H30.915C30.8261 2.38545 30.7452 2.33974 30.6868 2.27105C30.6285 2.20235 30.5965 2.11516 30.5965 2.02502C30.5965 1.93489 30.6285 1.8477 30.6868 1.779C30.7452 1.71031 30.8261 1.6646 30.915 1.65002H66.965C67.054 1.6646 67.1348 1.71031 67.1932 1.779C67.2515 1.8477 67.2836 1.93489 67.2836 2.02502C67.2836 2.11516 67.2515 2.20235 67.1932 2.27105C67.1348 2.33974 67.054 2.38545 66.965 2.40002ZM66.965 5.68002H30.915C30.816 5.67742 30.7219 5.63623 30.6528 5.56525C30.5836 5.49427 30.545 5.3991 30.545 5.30002C30.545 5.20189 30.584 5.10778 30.6534 5.03839C30.7228 4.96901 30.8169 4.93002 30.915 4.93002H66.965C67.014 4.92864 67.0627 4.93727 67.1082 4.95538C67.1537 4.97348 67.1951 5.00069 67.2297 5.03532C67.2644 5.06996 67.2916 5.1113 67.3097 5.15682C67.3278 5.20233 67.3364 5.25106 67.335 5.30002C67.3363 5.34945 67.3278 5.39864 67.3098 5.44469C67.2918 5.49074 67.2647 5.53272 67.2302 5.56814C67.1958 5.60357 67.1545 5.63172 67.109 5.65093C67.0634 5.67015 67.0145 5.68004 66.965 5.68002ZM56.245 9.00002H30.915C30.8169 9.00002 30.7228 8.96104 30.6534 8.89165C30.584 8.82227 30.545 8.72815 30.545 8.63002C30.545 8.53095 30.5836 8.43578 30.6528 8.3648C30.7219 8.29381 30.816 8.25263 30.915 8.25002H56.245C56.2945 8.25001 56.3434 8.2599 56.389 8.27911C56.4345 8.29833 56.4758 8.32648 56.5102 8.36191C56.5447 8.39733 56.5718 8.43931 56.5898 8.48536C56.6078 8.53141 56.6164 8.5806 56.615 8.63002C56.6164 8.67899 56.6078 8.72772 56.5897 8.77323C56.5716 8.81875 56.5444 8.86009 56.5097 8.89473C56.4751 8.92936 56.4337 8.95657 56.3882 8.97467C56.3427 8.99278 56.294 9.0014 56.245 9.00002Z" fill="#181818"/>
<path d="M26.375 14.58H10.205V25.18H26.375V14.58Z" fill="#C9E0FC"/>
<path d="M16.865 17.66V22.1L19.725 19.88L16.865 17.66Z" fill="#181818"/>
<path d="M66.965 17H30.915C30.8261 16.9854 30.7452 16.9397 30.6868 16.871C30.6285 16.8023 30.5965 16.7151 30.5965 16.625C30.5965 16.5349 30.6285 16.4477 30.6868 16.379C30.7452 16.3103 30.8261 16.2646 30.915 16.25H66.965C67.054 16.2646 67.1348 16.3103 67.1932 16.379C67.2515 16.4477 67.2836 16.5349 67.2836 16.625C67.2836 16.7151 67.2515 16.8023 67.1932 16.871C67.1348 16.9397 67.054 16.9854 66.965 17ZM66.965 20.26H30.915C30.816 20.2574 30.7219 20.2162 30.6528 20.1452C30.5836 20.0742 30.545 19.9791 30.545 19.88C30.545 19.7819 30.584 19.6878 30.6534 19.6184C30.7228 19.549 30.8169 19.51 30.915 19.51H66.965C67.014 19.5086 67.0627 19.5172 67.1082 19.5354C67.1537 19.5535 67.1951 19.5807 67.2297 19.6153C67.2644 19.6499 67.2916 19.6913 67.3097 19.7368C67.3278 19.7823 67.3364 19.831 67.335 19.88C67.3363 19.9294 67.3278 19.9786 67.3098 20.0247C67.2918 20.0707 67.2647 20.1127 67.2302 20.1481C67.1958 20.1835 67.1545 20.2117 67.109 20.2309C67.0634 20.2501 67.0145 20.26 66.965 20.26ZM56.245 23.53H30.915C30.8169 23.53 30.7228 23.491 30.6534 23.4216C30.584 23.3522 30.545 23.2581 30.545 23.16C30.545 23.0609 30.5836 22.9658 30.6528 22.8948C30.7219 22.8238 30.816 22.7826 30.915 22.78H56.245C56.2945 22.78 56.3434 22.7899 56.389 22.8091C56.4345 22.8283 56.4758 22.8565 56.5102 22.8919C56.5447 22.9273 56.5718 22.9693 56.5898 23.0153C56.6078 23.0614 56.6164 23.1106 56.615 23.16C56.6164 23.209 56.6078 23.2577 56.5897 23.3032C56.5716 23.3487 56.5444 23.3901 56.5097 23.4247C56.4751 23.4593 56.4337 23.4865 56.3882 23.5046C56.3427 23.5228 56.294 23.5314 56.245 23.53Z" fill="#181818"/>
</g>
<defs>
<clipPath id="clip0_24_1403">
<rect width="128.75" height="114.96" fill="white" transform="translate(0.625)"/>
</clipPath>
</defs>
</svg>
