<svg width="130" height="115" viewBox="0 0 130 115" fill="none" xmlns="http://www.w3.org/2000/svg">
<g clip-path="url(#clip0_24_1335)">
<path d="M26.305 114.57H103.695C111.374 106.912 116.609 97.1481 118.736 86.5137C120.863 75.8794 119.786 64.853 115.643 54.8307C111.5 44.8083 104.476 36.2407 95.4612 30.2123C86.4461 24.184 75.845 20.9662 65 20.9662C54.155 20.9662 43.5539 24.184 34.5388 30.2123C25.5236 36.2407 18.4998 44.8083 14.3567 54.8307C10.2135 64.853 9.1373 75.8794 11.2643 86.5137C13.3912 97.1481 18.6257 106.912 26.305 114.57Z" fill="#DAE9F1"/>
<path d="M103.085 74.09C103.085 74 103.085 73.91 103.085 73.82H110.795C110.795 73.91 110.795 74 110.795 74.09V109.59C110.795 109.708 110.772 109.824 110.726 109.933C110.681 110.042 110.615 110.14 110.531 110.223C110.447 110.306 110.348 110.371 110.239 110.415C110.13 110.459 110.013 110.481 109.895 110.48H103.955C103.719 110.48 103.493 110.386 103.326 110.219C103.159 110.052 103.065 109.826 103.065 109.59L103.085 74.09Z" fill="#FE6666"/>
<path d="M110.815 93.75H103.085V95.26H110.815V93.75Z" fill="#181818"/>
<path d="M110.805 73.82C110.763 69.8399 109.732 65.9326 107.805 62.45H106.135C104.208 65.9326 103.177 69.8399 103.135 73.82H110.805Z" fill="white"/>
<path d="M106.365 62.45L106.955 61.01L107.535 62.45H106.365Z" fill="#181818"/>
<path d="M101.685 96.63C101.773 96.63 101.856 96.6648 101.918 96.7267C101.98 96.7886 102.015 96.8725 102.015 96.96V105.28C101.999 105.552 102.038 105.825 102.131 106.081C102.224 106.337 102.368 106.572 102.555 106.77C102.963 107.129 103.491 107.322 104.035 107.31H110.815C110.903 107.31 110.986 107.345 111.048 107.407C111.11 107.469 111.145 107.552 111.145 107.64C111.145 107.728 111.11 107.811 111.048 107.873C110.986 107.935 110.903 107.97 110.815 107.97H104.045C103.311 107.992 102.596 107.734 102.045 107.25C101.788 106.987 101.59 106.673 101.462 106.329C101.335 105.984 101.281 105.617 101.305 105.25V97C101.298 96.9489 101.303 96.8969 101.32 96.8482C101.337 96.7994 101.365 96.7553 101.402 96.7193C101.439 96.6833 101.484 96.6565 101.533 96.641C101.582 96.6255 101.634 96.6217 101.685 96.63Z" fill="#181818"/>
<path d="M90.015 17.16H18.855V114.58H90.015V17.16Z" fill="#F0F8FF"/>
<path d="M90.015 17.16H18.855V29.6H90.015V17.16Z" fill="#1D2631"/>
<path d="M30.315 24.27C30.216 24.2674 30.1219 24.2262 30.0527 24.1553C29.9836 24.0843 29.945 23.9891 29.945 23.89V12.71C29.9596 12.6211 30.0053 12.5402 30.074 12.4819C30.1427 12.4235 30.2299 12.3915 30.32 12.3915C30.4101 12.3915 30.4973 12.4235 30.566 12.4819C30.6347 12.5402 30.6804 12.6211 30.695 12.71V23.89C30.695 23.9908 30.655 24.0875 30.5837 24.1587C30.5124 24.23 30.4158 24.27 30.315 24.27ZM39.965 24.27C39.8642 24.27 39.7676 24.23 39.6963 24.1587C39.625 24.0875 39.585 23.9908 39.585 23.89V12.71C39.5876 12.611 39.6288 12.5169 39.6998 12.4478C39.7708 12.3787 39.8659 12.34 39.965 12.34C40.0631 12.34 40.1573 12.379 40.2266 12.4484C40.296 12.5178 40.335 12.6119 40.335 12.71V23.89C40.3363 23.9395 40.3278 23.9886 40.3098 24.0347C40.2918 24.0807 40.2647 24.1227 40.2302 24.1581C40.1957 24.1936 40.1545 24.2217 40.1089 24.2409C40.0634 24.2602 40.0145 24.27 39.965 24.27ZM49.625 24.27C49.5242 24.27 49.4276 24.23 49.3563 24.1587C49.285 24.0875 49.245 23.9908 49.245 23.89V12.71C49.2596 12.6211 49.3053 12.5402 49.374 12.4819C49.4427 12.4235 49.5299 12.3915 49.62 12.3915C49.7101 12.3915 49.7973 12.4235 49.866 12.4819C49.9347 12.5402 49.9804 12.6211 49.995 12.71V23.89C49.995 23.9891 49.9564 24.0843 49.8873 24.1553C49.8182 24.2262 49.724 24.2674 49.625 24.27ZM59.255 24.27C59.2056 24.27 59.1566 24.2602 59.1111 24.2409C59.0655 24.2217 59.0243 24.1936 58.9898 24.1581C58.9553 24.1227 58.9282 24.0807 58.9102 24.0347C58.8923 23.9886 58.8837 23.9395 58.885 23.89V12.71C58.885 12.6119 58.924 12.5178 58.9934 12.4484C59.0628 12.379 59.1569 12.34 59.255 12.34C59.3541 12.34 59.4492 12.3787 59.5202 12.4478C59.5912 12.5169 59.6324 12.611 59.635 12.71V23.89C59.635 23.9908 59.595 24.0875 59.5237 24.1587C59.4524 24.23 59.3558 24.27 59.255 24.27ZM68.905 24.27C68.8042 24.27 68.7076 24.23 68.6363 24.1587C68.565 24.0875 68.525 23.9908 68.525 23.89V12.71C68.5396 12.6211 68.5853 12.5402 68.654 12.4819C68.7227 12.4235 68.8099 12.3915 68.9 12.3915C68.9901 12.3915 69.0773 12.4235 69.146 12.4819C69.2147 12.5402 69.2604 12.6211 69.275 12.71V23.89C69.275 23.9891 69.2364 24.0843 69.1673 24.1553C69.0982 24.2262 69.004 24.2674 68.905 24.27ZM78.545 24.27C78.446 24.2674 78.3519 24.2262 78.2827 24.1553C78.2136 24.0843 78.175 23.9891 78.175 23.89V12.71C78.1896 12.6211 78.2353 12.5402 78.304 12.4819C78.3727 12.4235 78.4599 12.3915 78.55 12.3915C78.6401 12.3915 78.7273 12.4235 78.796 12.4819C78.8647 12.5402 78.9104 12.6211 78.925 12.71V23.89C78.925 23.9908 78.885 24.0875 78.8137 24.1587C78.7424 24.23 78.6458 24.27 78.545 24.27ZM78.545 46H30.315C30.2261 45.9855 30.1452 45.9397 30.0868 45.871C30.0285 45.8024 29.9964 45.7152 29.9964 45.625C29.9964 45.5349 30.0285 45.4477 30.0868 45.379C30.1452 45.3103 30.2261 45.2646 30.315 45.25H78.545C78.5994 45.2411 78.655 45.2441 78.7081 45.2589C78.7612 45.2736 78.8105 45.2997 78.8525 45.3354C78.8945 45.3711 78.9282 45.4155 78.9513 45.4655C78.9745 45.5155 78.9865 45.5699 78.9865 45.625C78.9865 45.6801 78.9745 45.7346 78.9513 45.7846C78.9282 45.8346 78.8945 45.879 78.8525 45.9146C78.8105 45.9503 78.7612 45.9764 78.7081 45.9912C78.655 46.0059 78.5994 46.0089 78.545 46ZM78.545 55.29H30.315C30.2261 55.2755 30.1452 55.2297 30.0868 55.161C30.0285 55.0924 29.9964 55.0052 29.9964 54.915C29.9964 54.8249 30.0285 54.7377 30.0868 54.669C30.1452 54.6003 30.2261 54.5546 30.315 54.54H78.545C78.5994 54.5311 78.655 54.5341 78.7081 54.5489C78.7612 54.5636 78.8105 54.5897 78.8525 54.6254C78.8945 54.6611 78.9282 54.7055 78.9513 54.7555C78.9745 54.8055 78.9865 54.8599 78.9865 54.915C78.9865 54.9701 78.9745 55.0246 78.9513 55.0746C78.9282 55.1246 78.8945 55.169 78.8525 55.2046C78.8105 55.2403 78.7612 55.2664 78.7081 55.2812C78.655 55.2959 78.5994 55.2989 78.545 55.29ZM78.545 64.6H30.315C30.2261 64.5855 30.1452 64.5397 30.0868 64.4711C30.0285 64.4024 29.9964 64.3152 29.9964 64.225C29.9964 64.1349 30.0285 64.0477 30.0868 63.979C30.1452 63.9103 30.2261 63.8646 30.315 63.85H78.545C78.5994 63.8411 78.655 63.8441 78.7081 63.8589C78.7612 63.8736 78.8105 63.8997 78.8525 63.9354C78.8945 63.9711 78.9282 64.0155 78.9513 64.0655C78.9745 64.1155 78.9865 64.1699 78.9865 64.225C78.9865 64.2801 78.9745 64.3346 78.9513 64.3846C78.9282 64.4346 78.8945 64.479 78.8525 64.5146C78.8105 64.5503 78.7612 64.5764 78.7081 64.5912C78.655 64.6059 78.5994 64.6089 78.545 64.6ZM78.545 73.91H30.315C30.2261 73.8955 30.1452 73.8497 30.0868 73.781C30.0285 73.7124 29.9964 73.6252 29.9964 73.535C29.9964 73.4449 30.0285 73.3577 30.0868 73.289C30.1452 73.2203 30.2261 73.1746 30.315 73.16H78.545C78.5994 73.1511 78.655 73.1541 78.7081 73.1689C78.7612 73.1836 78.8105 73.2097 78.8525 73.2454C78.8945 73.2811 78.9282 73.3255 78.9513 73.3755C78.9745 73.4255 78.9865 73.4799 78.9865 73.535C78.9865 73.5901 78.9745 73.6446 78.9513 73.6946C78.9282 73.7446 78.8945 73.789 78.8525 73.8246C78.8105 73.8603 78.7612 73.8864 78.7081 73.9012C78.655 73.9159 78.5994 73.9189 78.545 73.91ZM78.545 83.22H30.315C30.216 83.2174 30.1219 83.1762 30.0527 83.1053C29.9836 83.0343 29.945 82.9391 29.945 82.84C29.945 82.7914 29.9546 82.7433 29.9732 82.6984C29.9918 82.6535 30.019 82.6128 30.0534 82.5784C30.0877 82.544 30.1285 82.5168 30.1734 82.4982C30.2183 82.4796 30.2664 82.47 30.315 82.47H78.545C78.5944 82.4687 78.6436 82.4773 78.6897 82.4953C78.7357 82.5133 78.7777 82.5403 78.8131 82.5748C78.8485 82.6093 78.8767 82.6505 78.8959 82.6961C78.9151 82.7416 78.925 82.7906 78.925 82.84C78.925 82.9408 78.885 83.0375 78.8137 83.1087C78.7424 83.18 78.6458 83.22 78.545 83.22ZM68.905 92.53H30.315C30.216 92.5274 30.1219 92.4862 30.0527 92.4153C29.9836 92.3443 29.945 92.2491 29.945 92.15C29.945 92.0519 29.984 91.9578 30.0534 91.8884C30.1228 91.819 30.2169 91.78 30.315 91.78H68.905C69.0031 91.78 69.0972 91.819 69.1666 91.8884C69.236 91.9578 69.275 92.0519 69.275 92.15C69.275 92.2491 69.2364 92.3443 69.1673 92.4153C69.0982 92.4862 69.004 92.5274 68.905 92.53Z" fill="#181818"/>
<path d="M90.015 99.11L74.555 114.58L69.315 103.31L90.015 99.11Z" fill="white"/>
<path d="M90.015 99.11V114.58H74.555L90.015 99.11Z" fill="#B3D3F4"/>
<path d="M129.005 114.2H108.005C108.185 114.052 108.331 113.865 108.431 113.655C108.531 113.444 108.584 113.213 108.585 112.98V109.74H105.395V113C105.396 113.233 105.449 113.464 105.549 113.675C105.649 113.886 105.795 114.072 105.975 114.22H1.005C0.950626 114.211 0.894964 114.214 0.841873 114.229C0.788782 114.244 0.739533 114.27 0.69754 114.305C0.655546 114.341 0.621813 114.385 0.598678 114.435C0.575543 114.485 0.56356 114.54 0.56356 114.595C0.56356 114.65 0.575543 114.705 0.598678 114.755C0.621813 114.805 0.655546 114.849 0.69754 114.885C0.739533 114.92 0.788782 114.946 0.841873 114.961C0.894964 114.976 0.950626 114.979 1.005 114.97H129.005C129.094 114.955 129.175 114.91 129.233 114.841C129.292 114.772 129.324 114.685 129.324 114.595C129.324 114.505 129.292 114.418 129.233 114.349C129.175 114.28 129.094 114.235 129.005 114.22V114.2Z" fill="#181818"/>
<path d="M107.285 43.69L96.725 51.63L104.665 41.08L107.285 43.69Z" fill="white"/>
<path d="M113.085 44.71C110.475 47.31 107.785 45.79 105.175 43.18C102.565 40.57 101.045 37.88 103.655 35.28C104.269 34.6358 105.005 34.1209 105.82 33.7655C106.636 33.41 107.514 33.2214 108.404 33.2105C109.293 33.1997 110.176 33.3669 111 33.7023C111.824 34.0377 112.572 34.5346 113.201 35.1636C113.83 35.7927 114.327 36.5412 114.663 37.3651C114.998 38.1891 115.165 39.0718 115.155 39.9613C115.144 40.8509 114.955 41.7293 114.6 42.5448C114.244 43.3603 113.729 44.0965 113.085 44.71Z" fill="#3881F9"/>
<path d="M25.335 109.46H10.845C10.7469 109.46 10.6528 109.421 10.5834 109.352C10.514 109.282 10.475 109.188 10.475 109.09C10.475 108.991 10.5136 108.896 10.5827 108.825C10.6519 108.754 10.746 108.713 10.845 108.71H25.335C26.5577 108.71 27.7302 108.224 28.5948 107.36C29.4593 106.495 29.945 105.323 29.945 104.1C29.945 102.877 29.4593 101.705 28.5948 100.84C27.7302 99.9757 26.5577 99.49 25.335 99.49H9.255C8.82217 99.41 8.37703 99.4262 7.95116 99.5374C7.52528 99.6487 7.12912 99.8524 6.79076 100.134C6.45239 100.415 6.18013 100.768 5.99328 101.167C5.80643 101.565 5.70957 102 5.70957 102.44C5.70957 102.88 5.80643 103.315 5.99328 103.713C6.18013 104.112 6.45239 104.465 6.79076 104.746C7.12912 105.028 7.52528 105.231 7.95116 105.343C8.37703 105.454 8.82217 105.47 9.255 105.39H25.415C25.5839 105.39 25.7512 105.357 25.9072 105.292C26.0631 105.227 26.2047 105.131 26.3237 105.012C26.4426 104.892 26.5367 104.749 26.6005 104.593C26.6642 104.436 26.6963 104.269 26.695 104.1C26.695 103.761 26.5602 103.435 26.3201 103.195C26.0801 102.955 25.7545 102.82 25.415 102.82H10.845C10.7469 102.82 10.6528 102.781 10.5834 102.712C10.514 102.642 10.475 102.548 10.475 102.45C10.475 102.351 10.5136 102.256 10.5827 102.185C10.6519 102.114 10.746 102.073 10.845 102.07H25.415C25.9454 102.07 26.4541 102.281 26.8292 102.656C27.2043 103.031 27.415 103.54 27.415 104.07C27.415 104.6 27.2043 105.109 26.8292 105.484C26.4541 105.859 25.9454 106.07 25.415 106.07H9.255C8.2737 106.07 7.33259 105.68 6.63871 104.986C5.94482 104.292 5.555 103.351 5.555 102.37C5.555 101.389 5.94482 100.448 6.63871 99.7537C7.33259 99.0598 8.2737 98.67 9.255 98.67H25.335C26.7566 98.67 28.1199 99.2347 29.1251 100.24C30.1303 101.245 30.695 102.608 30.695 104.03C30.695 105.452 30.1303 106.815 29.1251 107.82C28.1199 108.825 26.7566 109.39 25.335 109.39V109.46ZM122.155 50.23C122.054 50.23 121.958 50.19 121.886 50.1187C121.815 50.0474 121.775 49.9508 121.775 49.85V48.73C121.766 48.6756 121.769 48.62 121.784 48.5669C121.799 48.5138 121.825 48.4645 121.86 48.4225C121.896 48.3805 121.94 48.3468 121.99 48.3237C122.04 48.3005 122.095 48.2886 122.15 48.2886C122.205 48.2886 122.26 48.3005 122.31 48.3237C122.36 48.3468 122.404 48.3805 122.44 48.4225C122.475 48.4645 122.501 48.5138 122.516 48.5669C122.531 48.62 122.534 48.6756 122.525 48.73V49.85C122.525 49.9491 122.486 50.0442 122.417 50.1152C122.348 50.1862 122.254 50.2274 122.155 50.23ZM119.695 51L118.895 50.21C118.828 50.1379 118.791 50.0433 118.791 49.945C118.791 49.8467 118.828 49.7521 118.895 49.68C118.929 49.6446 118.971 49.6165 119.016 49.5973C119.062 49.5781 119.111 49.5682 119.16 49.5682C119.209 49.5682 119.258 49.5781 119.304 49.5973C119.349 49.6165 119.391 49.6446 119.425 49.68L120.225 50.47C120.295 50.5403 120.335 50.6356 120.335 50.735C120.335 50.8344 120.295 50.9297 120.225 51C120.155 51.0703 120.059 51.1098 119.96 51.1098C119.861 51.1098 119.765 51.0703 119.695 51ZM119.055 53.33H117.925C117.876 53.33 117.827 53.3201 117.781 53.3009C117.736 53.2817 117.694 53.2535 117.66 53.2181C117.625 53.1827 117.598 53.1407 117.58 53.0947C117.562 53.0486 117.554 52.9994 117.555 52.95C117.554 52.901 117.562 52.8523 117.58 52.8068C117.598 52.7613 117.626 52.7199 117.66 52.6853C117.695 52.6507 117.736 52.6235 117.782 52.6054C117.827 52.5872 117.876 52.5786 117.925 52.58H119.055C119.153 52.58 119.247 52.619 119.317 52.6884C119.386 52.7578 119.425 52.8519 119.425 52.95C119.425 53.0491 119.386 53.1442 119.317 53.2152C119.248 53.2862 119.154 53.3274 119.055 53.33ZM118.895 56.21C118.828 56.1379 118.791 56.0433 118.791 55.945C118.791 55.8467 118.828 55.7521 118.895 55.68L119.695 54.88C119.765 54.8097 119.861 54.7702 119.96 54.7702C120.059 54.7702 120.155 54.8097 120.225 54.88C120.295 54.9503 120.335 55.0456 120.335 55.145C120.335 55.2444 120.295 55.3397 120.225 55.41L119.425 56.2C119.355 56.2704 119.261 56.3108 119.162 56.3127C119.063 56.3145 118.967 56.2777 118.895 56.21ZM122.155 57.55C122.056 57.55 121.961 57.5114 121.89 57.4423C121.819 57.3731 121.778 57.279 121.775 57.18V56.05C121.79 55.9611 121.835 55.8802 121.904 55.8218C121.973 55.7635 122.06 55.7314 122.15 55.7314C122.24 55.7314 122.327 55.7635 122.396 55.8218C122.465 55.8802 122.51 55.9611 122.525 56.05V57.18C122.522 57.2773 122.483 57.37 122.414 57.4388C122.345 57.5077 122.252 57.5475 122.155 57.55ZM124.875 56.2L124.085 55.41C124.015 55.3397 123.975 55.2444 123.975 55.145C123.975 55.0456 124.015 54.9503 124.085 54.88C124.155 54.8097 124.251 54.7702 124.35 54.7702C124.449 54.7702 124.545 54.8097 124.615 54.88L125.405 55.68C125.44 55.7145 125.469 55.7557 125.488 55.8012C125.507 55.8467 125.517 55.8956 125.517 55.945C125.517 55.9944 125.507 56.0433 125.488 56.0888C125.469 56.1343 125.44 56.1755 125.405 56.21C125.333 56.2777 125.237 56.3145 125.138 56.3127C125.039 56.3108 124.945 56.2704 124.875 56.2ZM126.375 53.33H125.255C125.154 53.33 125.058 53.29 124.986 53.2187C124.915 53.1474 124.875 53.0508 124.875 52.95C124.875 52.9006 124.885 52.8516 124.904 52.8061C124.923 52.7605 124.951 52.7193 124.987 52.6848C125.022 52.6503 125.064 52.6232 125.11 52.6052C125.156 52.5872 125.206 52.5787 125.255 52.58H126.375C126.424 52.5787 126.474 52.5872 126.52 52.6052C126.566 52.6232 126.608 52.6503 126.643 52.6848C126.679 52.7193 126.707 52.7605 126.726 52.8061C126.745 52.8516 126.755 52.9006 126.755 52.95C126.755 53.0508 126.715 53.1474 126.644 53.2187C126.572 53.29 126.476 53.33 126.375 53.33ZM124.085 51C124.05 50.9655 124.022 50.9243 124.002 50.8788C123.983 50.8333 123.973 50.7844 123.973 50.735C123.973 50.6856 123.983 50.6367 124.002 50.5912C124.022 50.5457 124.05 50.5045 124.085 50.47L124.875 49.68C124.945 49.6097 125.041 49.5702 125.14 49.5702C125.239 49.5702 125.335 49.6097 125.405 49.68C125.475 49.7503 125.515 49.8456 125.515 49.945C125.515 50.0444 125.475 50.1397 125.405 50.21L124.625 51C124.59 51.0369 124.549 51.0664 124.502 51.0865C124.456 51.1066 124.406 51.117 124.355 51.117C124.304 51.117 124.254 51.1066 124.208 51.0865C124.161 51.0664 124.12 51.0369 124.085 51ZM9.335 44.63C9.23687 44.63 9.14276 44.591 9.07338 44.5216C9.00399 44.4522 8.965 44.3581 8.965 44.26V43.13C8.96362 43.081 8.97225 43.0323 8.99036 42.9868C9.00846 42.9413 9.03567 42.8999 9.0703 42.8653C9.10494 42.8307 9.14628 42.8035 9.1918 42.7854C9.23731 42.7672 9.28604 42.7586 9.335 42.76C9.38443 42.7587 9.43362 42.7672 9.47967 42.7852C9.52572 42.8032 9.5677 42.8303 9.60312 42.8648C9.63855 42.8993 9.6667 42.9405 9.68591 42.9861C9.70513 43.0316 9.71502 43.0806 9.715 43.13V44.26C9.7124 44.359 9.67121 44.4531 9.60023 44.5223C9.52925 44.5914 9.43408 44.63 9.335 44.63ZM6.875 45.43L6.085 44.63C6.04963 44.5955 6.02151 44.5543 6.00231 44.5088C5.98311 44.4633 5.97322 44.4144 5.97322 44.365C5.97322 44.3156 5.98311 44.2667 6.00231 44.2212C6.02151 44.1757 6.04963 44.1345 6.085 44.1C6.1571 44.0332 6.25174 43.9961 6.35 43.9961C6.44827 43.9961 6.54291 44.0332 6.615 44.1L7.405 44.9C7.43981 44.9348 7.46741 44.9761 7.48624 45.0216C7.50508 45.0671 7.51477 45.1158 7.51477 45.165C7.51477 45.2142 7.50508 45.263 7.48624 45.3084C7.46741 45.3539 7.43981 45.3952 7.405 45.43C7.3702 45.4648 7.32889 45.4924 7.28342 45.5112C7.23795 45.5301 7.18922 45.5398 7.14 45.5398C7.09079 45.5398 7.04206 45.5301 6.99659 45.5112C6.95112 45.4924 6.90981 45.4648 6.875 45.43ZM6.235 47.73H5.105C5.01606 47.7154 4.93519 47.6697 4.87684 47.601C4.81848 47.5323 4.78645 47.4451 4.78645 47.355C4.78645 47.2649 4.81848 47.1777 4.87684 47.109C4.93519 47.0403 5.01606 46.9946 5.105 46.98H6.235C6.32395 46.9946 6.40482 47.0403 6.46317 47.109C6.52153 47.1777 6.55356 47.2649 6.55356 47.355C6.55356 47.4451 6.52153 47.5323 6.46317 47.601C6.40482 47.6697 6.32395 47.7154 6.235 47.73ZM6.085 50.61C6.04963 50.5755 6.02151 50.5343 6.00231 50.4888C5.98311 50.4433 5.97322 50.3944 5.97322 50.345C5.97322 50.2956 5.98311 50.2467 6.00231 50.2012C6.02151 50.1557 6.04963 50.1145 6.085 50.08L6.875 49.29C6.94595 49.221 7.04102 49.1824 7.14 49.1824C7.23899 49.1824 7.33406 49.221 7.405 49.29C7.44038 49.3245 7.4685 49.3657 7.4877 49.4112C7.5069 49.4567 7.51679 49.5056 7.51679 49.555C7.51679 49.6044 7.5069 49.6533 7.4877 49.6988C7.4685 49.7443 7.44038 49.7855 7.405 49.82L6.615 50.62C6.57987 50.6547 6.53813 50.6821 6.49226 50.7004C6.44638 50.7188 6.39729 50.7277 6.3479 50.7268C6.2985 50.7259 6.24978 50.7151 6.20463 50.695C6.15948 50.6749 6.11881 50.646 6.085 50.61ZM9.335 52C9.28556 52 9.23662 51.9901 9.19106 51.9709C9.14551 51.9517 9.10427 51.9235 9.06978 51.8881C9.03528 51.8527 9.00824 51.8107 8.99025 51.7647C8.97225 51.7186 8.96367 51.6694 8.965 51.62V50.46C8.96367 50.4106 8.97225 50.3614 8.99025 50.3153C9.00824 50.2693 9.03528 50.2273 9.06978 50.1919C9.10427 50.1565 9.14551 50.1283 9.19106 50.1091C9.23662 50.0899 9.28556 50.08 9.335 50.08C9.38491 50.08 9.43432 50.0898 9.48042 50.1089C9.52653 50.128 9.56842 50.156 9.60371 50.1913C9.63899 50.2266 9.66698 50.2685 9.68608 50.3146C9.70518 50.3607 9.715 50.4101 9.715 50.46V51.58C9.72063 51.6332 9.71498 51.6869 9.69842 51.7377C9.68186 51.7886 9.65476 51.8353 9.6189 51.875C9.58304 51.9146 9.53921 51.9462 9.49029 51.9678C9.44137 51.9893 9.38846 52.0003 9.335 52ZM12.055 50.61L11.265 49.81C11.2296 49.7755 11.2015 49.7343 11.1823 49.6888C11.1631 49.6433 11.1532 49.5944 11.1532 49.545C11.1532 49.4956 11.1631 49.4467 11.1823 49.4012C11.2015 49.3557 11.2296 49.3145 11.265 49.28C11.3359 49.211 11.431 49.1724 11.53 49.1724C11.629 49.1724 11.7241 49.211 11.795 49.28L12.585 50.07C12.6553 50.1403 12.6948 50.2356 12.6948 50.335C12.6948 50.4344 12.6553 50.5297 12.585 50.6C12.5147 50.6703 12.4194 50.7098 12.32 50.7098C12.2206 50.7098 12.1253 50.6703 12.055 50.6V50.61ZM13.565 47.73H12.435C12.3461 47.7154 12.2652 47.6697 12.2068 47.601C12.1485 47.5323 12.1164 47.4451 12.1164 47.355C12.1164 47.2649 12.1485 47.1777 12.2068 47.109C12.2652 47.0403 12.3461 46.9946 12.435 46.98H13.565C13.6539 46.9946 13.7348 47.0403 13.7932 47.109C13.8515 47.1777 13.8836 47.2649 13.8836 47.355C13.8836 47.4451 13.8515 47.5323 13.7932 47.601C13.7348 47.6697 13.6539 47.7154 13.565 47.73ZM11.265 45.43C11.2296 45.3955 11.2015 45.3543 11.1823 45.3088C11.1631 45.2633 11.1532 45.2144 11.1532 45.165C11.1532 45.1156 11.1631 45.0667 11.1823 45.0212C11.2015 44.9757 11.2296 44.9345 11.265 44.9L12.055 44.1C12.1271 44.0332 12.2217 43.9961 12.32 43.9961C12.4183 43.9961 12.5129 44.0332 12.585 44.1C12.6204 44.1345 12.6485 44.1757 12.6677 44.2212C12.6869 44.2667 12.6968 44.3156 12.6968 44.365C12.6968 44.4144 12.6869 44.4633 12.6677 44.5088C12.6485 44.5543 12.6204 44.5955 12.585 44.63L11.795 45.43C11.7605 45.4654 11.7193 45.4935 11.6738 45.5127C11.6283 45.5319 11.5794 45.5418 11.53 45.5418C11.4806 45.5418 11.4317 45.5319 11.3862 45.5127C11.3407 45.4935 11.2995 45.4654 11.265 45.43ZM82.285 1.88C82.2356 1.88002 82.1866 1.87013 82.1411 1.85091C82.0955 1.83169 82.0543 1.80354 82.0198 1.76812C81.9853 1.73269 81.9582 1.69072 81.9402 1.64467C81.9222 1.59861 81.9137 1.54942 81.915 1.5V0.38C81.9137 0.330576 81.9222 0.281385 81.9402 0.235334C81.9582 0.189283 81.9853 0.147306 82.0198 0.111882C82.0543 0.076458 82.0955 0.0483062 82.1411 0.0290898C82.1866 0.00987334 82.2356 -1.80365e-05 82.285 2.46894e-08C82.3787 0.00991664 82.4654 0.0542896 82.5282 0.124507C82.591 0.194725 82.6255 0.28578 82.625 0.38V1.5C82.6255 1.59422 82.591 1.68527 82.5282 1.75549C82.4654 1.82571 82.3787 1.87008 82.285 1.88ZM79.825 2.67L79.035 1.88C78.9647 1.80972 78.9252 1.71439 78.9252 1.615C78.9252 1.51561 78.9647 1.42028 79.035 1.35C79.1053 1.27972 79.2006 1.24023 79.3 1.24023C79.3994 1.24023 79.4947 1.27972 79.565 1.35L80.355 2.14C80.4253 2.21028 80.4648 2.30561 80.4648 2.405C80.4648 2.50439 80.4253 2.59972 80.355 2.67C80.2847 2.74028 80.1894 2.77977 80.09 2.77977C79.9906 2.77977 79.8953 2.74028 79.825 2.67ZM79.185 5H78.055C77.956 4.99739 77.8619 4.95621 77.7927 4.88523C77.7236 4.81424 77.685 4.71907 77.685 4.62C77.685 4.57141 77.6946 4.5233 77.7132 4.47841C77.7318 4.43352 77.759 4.39273 77.7934 4.35837C77.8277 4.32401 77.8685 4.29676 77.9134 4.27816C77.9583 4.25957 78.0064 4.25 78.055 4.25H79.185C79.234 4.24862 79.2827 4.25725 79.3282 4.27535C79.3737 4.29346 79.4151 4.32066 79.4497 4.3553C79.4843 4.38994 79.5116 4.43128 79.5297 4.47679C79.5478 4.52231 79.5564 4.57104 79.555 4.62C79.5563 4.66942 79.5478 4.71861 79.5298 4.76467C79.5118 4.81072 79.4847 4.85269 79.4502 4.88812C79.4157 4.92354 79.3745 4.95169 79.3289 4.97091C79.2834 4.99013 79.2344 5.00002 79.185 5ZM79.035 7.86C78.9996 7.82553 78.9715 7.78432 78.9523 7.73881C78.9331 7.69329 78.9232 7.6444 78.9232 7.595C78.9232 7.5456 78.9331 7.49671 78.9523 7.45119C78.9715 7.40568 78.9996 7.36447 79.035 7.33L79.825 6.53C79.8953 6.45972 79.9906 6.42023 80.09 6.42023C80.1392 6.42023 80.188 6.42993 80.2334 6.44876C80.2789 6.46759 80.3202 6.4952 80.355 6.53C80.3898 6.5648 80.4174 6.60611 80.4362 6.65158C80.4551 6.69705 80.4648 6.74579 80.4648 6.795C80.4648 6.84421 80.4551 6.89295 80.4362 6.93842C80.4174 6.98389 80.3898 7.0252 80.355 7.06L79.565 7.85C79.4954 7.92038 79.401 7.96081 79.302 7.96268C79.2031 7.96454 79.1072 7.9277 79.035 7.86ZM82.285 9.2C82.1869 9.2 82.0928 9.16102 82.0234 9.09163C81.954 9.02224 81.915 8.92813 81.915 8.83V7.7C81.915 7.60187 81.954 7.50776 82.0234 7.43837C82.0928 7.36898 82.1869 7.33 82.285 7.33C82.377 7.33972 82.4623 7.38266 82.5249 7.45078C82.5875 7.5189 82.6231 7.60751 82.625 7.7V8.83C82.6231 8.92249 82.5875 9.0111 82.5249 9.07922C82.4623 9.14734 82.377 9.19028 82.285 9.2ZM85.005 7.85L84.215 7.06C84.1447 6.98972 84.1052 6.89439 84.1052 6.795C84.1052 6.69561 84.1447 6.60028 84.215 6.53C84.2853 6.45972 84.3806 6.42023 84.48 6.42023C84.5794 6.42023 84.6747 6.45972 84.745 6.53L85.535 7.33C85.5704 7.36447 85.5985 7.40568 85.6177 7.45119C85.6369 7.49671 85.6468 7.5456 85.6468 7.595C85.6468 7.6444 85.6369 7.69329 85.6177 7.73881C85.5985 7.78432 85.5704 7.82553 85.535 7.86C85.4628 7.9277 85.367 7.96454 85.268 7.96268C85.169 7.96081 85.0746 7.92038 85.005 7.85ZM86.515 5H85.385C85.3356 5.00002 85.2866 4.99013 85.2411 4.97091C85.1955 4.95169 85.1543 4.92354 85.1198 4.88812C85.0853 4.85269 85.0583 4.81072 85.0403 4.76467C85.0223 4.71861 85.0137 4.66942 85.015 4.62C85.0136 4.57104 85.0223 4.52231 85.0404 4.47679C85.0585 4.43128 85.0857 4.38994 85.1203 4.3553C85.1549 4.32066 85.1963 4.29346 85.2418 4.27535C85.2873 4.25725 85.336 4.24862 85.385 4.25H86.515C86.6131 4.25 86.7072 4.28898 86.7766 4.35837C86.846 4.42776 86.885 4.52187 86.885 4.62C86.885 4.71907 86.8464 4.81424 86.7773 4.88523C86.7082 4.95621 86.614 4.99739 86.515 5ZM84.215 2.67C84.1796 2.63553 84.1515 2.59432 84.1323 2.54881C84.1131 2.50329 84.1032 2.4544 84.1032 2.405C84.1032 2.3556 84.1131 2.30671 84.1323 2.26119C84.1515 2.21568 84.1796 2.17447 84.215 2.14L85.005 1.35C85.0753 1.27972 85.1706 1.24023 85.27 1.24023C85.3694 1.24023 85.4647 1.27972 85.535 1.35C85.6053 1.42028 85.6448 1.51561 85.6448 1.615C85.6448 1.71439 85.6053 1.80972 85.535 1.88L84.745 2.67C84.7105 2.70538 84.6693 2.7335 84.6238 2.7527C84.5783 2.77189 84.5294 2.78179 84.48 2.78179C84.4306 2.78179 84.3817 2.77189 84.3362 2.7527C84.2907 2.7335 84.2495 2.70538 84.215 2.67Z" fill="#181818"/>
</g>
<defs>
<clipPath id="clip0_24_1335">
<rect width="128.75" height="114.95" fill="white" transform="translate(0.625)"/>
</clipPath>
</defs>
</svg>
