<svg width="130" height="105" viewBox="0 0 130 105" fill="none" xmlns="http://www.w3.org/2000/svg">
<g clip-path="url(#clip0_24_1377)">
<path d="M26.305 104.59H103.695C111.374 96.9322 116.609 87.168 118.736 76.5337C120.863 65.8993 119.786 54.873 115.643 44.8506C111.5 34.8283 104.476 26.2606 95.4612 20.2323C86.4461 14.204 75.845 10.9861 65 10.9861C54.155 10.9861 43.5539 14.204 34.5387 20.2323C25.5236 26.2606 18.4998 34.8283 14.3567 44.8506C10.2135 54.873 9.1373 65.8993 11.2642 76.5337C13.3912 87.168 18.6257 96.9322 26.305 104.59Z" fill="#DAE9F1"/>
<path d="M76.325 14.27H10.495V104.6H76.325V14.27Z" fill="#1D2631"/>
<path d="M86.585 14.27H20.755V104.6H86.585V14.27Z" fill="white"/>
<path d="M48.045 14.64H16.115C16.0606 14.6489 16.005 14.6459 15.9519 14.6311C15.8988 14.6164 15.8495 14.5903 15.8075 14.5546C15.7655 14.5189 15.7318 14.4746 15.7087 14.4246C15.6855 14.3745 15.6736 14.3201 15.6736 14.265C15.6736 14.2099 15.6855 14.1555 15.7087 14.1055C15.7318 14.0554 15.7655 14.0111 15.8075 13.9754C15.8495 13.9397 15.8988 13.9136 15.9519 13.8989C16.005 13.8841 16.0606 13.8811 16.115 13.89H48.045C48.1339 13.9046 48.2148 13.9503 48.2732 14.019C48.3315 14.0877 48.3636 14.1749 48.3636 14.265C48.3636 14.3551 48.3315 14.4423 48.2732 14.511C48.2148 14.5797 48.1339 14.6254 48.045 14.64ZM86.625 23C86.5259 23 86.4307 22.9614 86.3598 22.8923C86.2888 22.8231 86.2476 22.729 86.245 22.63V14.63H69.995C69.906 14.6154 69.8252 14.5697 69.7668 14.501C69.7085 14.4323 69.6764 14.3451 69.6764 14.255C69.6764 14.1649 69.7085 14.0777 69.7668 14.009C69.8252 13.9403 69.906 13.8946 69.995 13.88H86.625C86.724 13.8826 86.8181 13.9238 86.8873 13.9948C86.9564 14.0658 86.995 14.1609 86.995 14.26V22.62C86.995 22.7191 86.9564 22.8142 86.8873 22.8852C86.8181 22.9562 86.724 22.9974 86.625 23ZM114.545 63.82C114.462 63.8233 114.381 63.7988 114.314 63.7505C114.247 63.7021 114.198 63.6327 114.175 63.5533C114.152 63.4739 114.156 63.389 114.187 63.3123C114.218 63.2356 114.273 63.1714 114.345 63.13L118.815 60.38C120.198 59.52 121.34 58.3229 122.134 56.9009C122.928 55.4789 123.348 53.8787 123.355 52.25V36.81H115.475C115.386 36.7954 115.305 36.7497 115.247 36.681C115.188 36.6123 115.156 36.5251 115.156 36.435C115.156 36.3449 115.188 36.2577 115.247 36.189C115.305 36.1203 115.386 36.0746 115.475 36.06H123.725C123.826 36.06 123.922 36.1 123.994 36.1713C124.065 36.2426 124.105 36.3392 124.105 36.44V52.25C124.099 54.0061 123.647 55.7318 122.789 57.2644C121.932 58.7971 120.698 60.0861 119.205 61.01L114.745 63.76C114.686 63.7993 114.616 63.8202 114.545 63.82Z" fill="#181818"/>
<path d="M86.625 88.75C86.625 88.13 87.235 87.54 88.305 87.03C90.6319 85.9685 92.6091 84.2674 94.006 82.125C95.403 79.9827 96.1621 77.4873 96.195 74.93C96.2003 73.9651 95.9177 73.0205 95.3833 72.2171C94.8489 71.4137 94.0869 70.788 93.195 70.42C89.9792 69.0869 87.224 66.8415 85.2693 63.961C83.3146 61.0805 82.2459 57.6907 82.195 54.21V32.79H117.895V54.21C117.844 57.6907 116.775 61.0805 114.821 63.961C112.866 66.8415 110.111 69.0869 106.895 70.42C106.012 70.7957 105.261 71.4248 104.736 72.2275C104.211 73.0303 103.936 73.9708 103.945 74.93C103.978 77.4757 104.731 79.9601 106.117 82.0959C107.502 84.2318 109.464 85.932 111.775 87C112.845 87.51 113.455 88.1 113.455 88.72" fill="#FCD63F"/>
<path d="M106.825 70.42H93.515C95.3235 72.0948 97.3401 73.5299 99.515 74.69C100.921 75.4487 102.416 76.0298 103.965 76.42C103.905 75.9256 103.875 75.428 103.875 74.93C103.867 73.9711 104.143 73.0312 104.668 72.2286C105.193 71.4261 105.943 70.7968 106.825 70.42Z" fill="#181818"/>
<path d="M117.875 32.79V54.21C117.875 58.9441 115.994 63.4843 112.647 66.8318C109.299 70.1794 104.759 72.06 100.025 72.06C95.2909 72.06 90.7507 70.1794 87.4031 66.8318C84.0556 63.4843 82.175 58.9441 82.175 54.21V32.79H117.875Z" fill="#FCD63F"/>
<path d="M119.415 30.35H80.625V34.11H119.415V30.35Z" fill="#FCD63F"/>
<path d="M117.875 35.65V34.1H82.165L117.875 35.65Z" fill="#181818"/>
<path d="M97.625 72C94.9467 71.6469 92.3829 70.6931 90.125 69.21C90.043 69.1568 89.9854 69.0732 89.9648 68.9777C89.9442 68.8821 89.9622 68.7823 90.015 68.7C90.0414 68.658 90.0759 68.6218 90.1166 68.5934C90.1572 68.565 90.2032 68.5451 90.2517 68.5349C90.3002 68.5246 90.3503 68.5242 90.3989 68.5337C90.4476 68.5431 90.4939 68.5623 90.535 68.59C92.7022 70.0058 95.159 70.9182 97.725 71.26C97.8231 71.2733 97.912 71.325 97.972 71.4037C98.032 71.4825 98.0582 71.5819 98.045 71.68C98.0317 71.7781 97.98 71.867 97.9013 71.927C97.8225 71.987 97.7231 72.0133 97.625 72Z" fill="#181818"/>
<path d="M100.025 57.57C104.548 57.57 108.215 53.9032 108.215 49.38C108.215 44.8568 104.548 41.19 100.025 41.19C95.5018 41.19 91.835 44.8568 91.835 49.38C91.835 53.9032 95.5018 57.57 100.025 57.57Z" fill="white"/>
<path d="M102.525 53.51H97.625C97.5756 53.5113 97.5264 53.5028 97.4803 53.4848C97.4343 53.4668 97.3923 53.4397 97.3569 53.4052C97.3214 53.3707 97.2933 53.3295 97.2741 53.284C97.2549 53.2384 97.245 53.1895 97.245 53.14C97.245 53.0392 97.285 52.9426 97.3563 52.8713C97.4276 52.8 97.5242 52.76 97.625 52.76H102.495C102.596 52.76 102.692 52.8 102.764 52.8713C102.835 52.9426 102.875 53.0392 102.875 53.14C102.875 53.2348 102.839 53.326 102.774 53.3948C102.709 53.4637 102.62 53.5049 102.525 53.51Z" fill="#181818"/>
<path d="M100.065 53.51C100.016 53.5113 99.9664 53.5027 99.9203 53.4847C99.8743 53.4667 99.8323 53.4397 99.7969 53.4052C99.7615 53.3707 99.7333 53.3295 99.7141 53.2839C99.6949 53.2384 99.685 53.1894 99.685 53.14V45.94L97.785 47.84C97.7141 47.909 97.619 47.9476 97.52 47.9476C97.421 47.9476 97.3259 47.909 97.255 47.84C97.2196 47.8055 97.1915 47.7643 97.1723 47.7188C97.1531 47.6733 97.1432 47.6244 97.1432 47.575C97.1432 47.5256 97.1531 47.4767 97.1723 47.4312C97.1915 47.3856 97.2196 47.3444 97.255 47.31L99.795 44.77C99.8499 44.7211 99.9169 44.6879 99.989 44.6738C100.061 44.6598 100.136 44.6653 100.205 44.69C100.273 44.7194 100.332 44.7682 100.373 44.8304C100.413 44.8926 100.435 44.9655 100.435 45.04V53.15C100.432 53.2464 100.392 53.3379 100.323 53.4052C100.254 53.4724 100.161 53.51 100.065 53.51ZM109.365 30.72H84.365C84.3106 30.7289 84.255 30.7259 84.2019 30.7111C84.1488 30.6964 84.0995 30.6702 84.0575 30.6346C84.0155 30.5989 83.9818 30.5545 83.9587 30.5045C83.9355 30.4545 83.9236 30.4001 83.9236 30.345C83.9236 30.2899 83.9355 30.2354 83.9587 30.1854C83.9818 30.1354 84.0155 30.091 84.0575 30.0554C84.0995 30.0197 84.1488 29.9936 84.2019 29.9788C84.255 29.9641 84.3106 29.9611 84.365 29.97H109.365C109.419 29.9611 109.475 29.9641 109.528 29.9788C109.581 29.9936 109.63 30.0197 109.672 30.0554C109.714 30.091 109.748 30.1354 109.771 30.1854C109.794 30.2354 109.806 30.2899 109.806 30.345C109.806 30.4001 109.794 30.4545 109.771 30.5045C109.748 30.5545 109.714 30.5989 109.672 30.6346C109.63 30.6702 109.581 30.6964 109.528 30.7111C109.475 30.7259 109.419 30.7289 109.365 30.72Z" fill="#181818"/>
<path d="M44.125 22.63H28.255V42.25H44.125V22.63Z" fill="#1D2631"/>
<path d="M63.305 84.5H28.305C28.2506 84.5089 28.195 84.5059 28.1419 84.4911C28.0888 84.4764 28.0395 84.4503 27.9975 84.4146C27.9555 84.3789 27.9218 84.3346 27.8987 84.2845C27.8755 84.2345 27.8636 84.1801 27.8636 84.125C27.8636 84.0699 27.8755 84.0155 27.8987 83.9655C27.9218 83.9154 27.9555 83.8711 27.9975 83.8354C28.0395 83.7997 28.0888 83.7736 28.1419 83.7589C28.195 83.7441 28.2506 83.7411 28.305 83.75H63.305C63.3594 83.7411 63.415 83.7441 63.4681 83.7589C63.5212 83.7736 63.5705 83.7997 63.6125 83.8354C63.6544 83.8711 63.6882 83.9154 63.7113 83.9655C63.7345 84.0155 63.7464 84.0699 63.7464 84.125C63.7464 84.1801 63.7345 84.2345 63.7113 84.2845C63.6882 84.3346 63.6544 84.3789 63.6125 84.4146C63.5705 84.4503 63.5212 84.4764 63.4681 84.4911C63.415 84.5059 63.3594 84.5089 63.305 84.5ZM79.075 75.41H28.255C28.2006 75.4189 28.145 75.4159 28.0919 75.4011C28.0388 75.3864 27.9895 75.3603 27.9475 75.3246C27.9055 75.2889 27.8718 75.2446 27.8487 75.1945C27.8255 75.1445 27.8136 75.0901 27.8136 75.035C27.8136 74.9799 27.8255 74.9255 27.8487 74.8755C27.8718 74.8254 27.9055 74.7811 27.9475 74.7454C27.9895 74.7097 28.0388 74.6836 28.0919 74.6689C28.145 74.6541 28.2006 74.6511 28.255 74.66H79.075C79.1294 74.6511 79.185 74.6541 79.2381 74.6689C79.2912 74.6836 79.3405 74.7097 79.3825 74.7454C79.4244 74.7811 79.4582 74.8254 79.4813 74.8755C79.5045 74.9255 79.5164 74.9799 79.5164 75.035C79.5164 75.0901 79.5045 75.1445 79.4813 75.1945C79.4582 75.2446 79.4244 75.2889 79.3825 75.3246C79.3405 75.3603 79.2912 75.3864 79.2381 75.4011C79.185 75.4159 79.1294 75.4189 79.075 75.41ZM79.075 66.32H28.255C28.1542 66.32 28.0576 66.28 27.9863 66.2087C27.915 66.1374 27.875 66.0408 27.875 65.94C27.875 65.8906 27.8849 65.8416 27.9041 65.7961C27.9233 65.7505 27.9515 65.7093 27.9869 65.6748C28.0223 65.6403 28.0643 65.6132 28.1103 65.5952C28.1564 65.5773 28.2056 65.5687 28.255 65.57H79.075C79.1244 65.5687 79.1736 65.5773 79.2197 65.5952C79.2657 65.6132 79.3077 65.6403 79.3431 65.6748C79.3785 65.7093 79.4067 65.7505 79.4259 65.7961C79.4451 65.8416 79.455 65.8906 79.455 65.94C79.455 66.0408 79.415 66.1374 79.3437 66.2087C79.2724 66.28 79.1758 66.32 79.075 66.32ZM79.075 29.94H49.785C49.7356 29.9413 49.6864 29.9328 49.6403 29.9148C49.5943 29.8968 49.5523 29.8697 49.5169 29.8352C49.4815 29.8007 49.4533 29.7595 49.4341 29.7139C49.4149 29.6684 49.405 29.6194 49.405 29.57C49.405 29.5201 49.4148 29.4707 49.4339 29.4246C49.453 29.3785 49.481 29.3366 49.5163 29.3013C49.5516 29.266 49.5935 29.238 49.6396 29.2189C49.6857 29.1998 49.7351 29.19 49.785 29.19H79.075C79.1758 29.19 79.2724 29.23 79.3437 29.3013C79.415 29.3726 79.455 29.4692 79.455 29.57C79.455 29.6194 79.4451 29.6684 79.4259 29.7139C79.4067 29.7595 79.3785 29.8007 79.3431 29.8352C79.3077 29.8697 79.2657 29.8968 79.2197 29.9148C79.1736 29.9328 79.1244 29.9413 79.075 29.94ZM48.125 94.51C48.0761 94.4231 48.0623 94.3208 48.0865 94.2241C48.1107 94.1274 48.171 94.0436 48.255 93.99C48.3474 93.9456 48.453 93.9374 48.5511 93.967C48.6492 93.9967 48.7326 94.0619 48.785 94.15C48.8179 94.1936 48.841 94.2438 48.8528 94.2971C48.8645 94.3504 48.8646 94.4056 48.8531 94.459C48.8416 94.5124 48.8187 94.5627 48.786 94.6064C48.7533 94.6502 48.7116 94.6863 48.6636 94.7125C48.6157 94.7386 48.5627 94.7541 48.5082 94.7579C48.4537 94.7618 48.3991 94.7538 48.3479 94.7346C48.2968 94.7154 48.2505 94.6854 48.212 94.6466C48.1735 94.6078 48.1438 94.5613 48.125 94.51ZM42.185 95.6C41.245 95.26 41.125 93.76 42.545 93.28C42.462 93.2234 42.371 93.1795 42.275 93.15C41.335 92.87 40.435 93.65 39.645 94.34C38.455 95.34 37.055 96.14 35.845 95.14C35.4288 95.2734 34.9912 95.3277 34.555 95.3C33.656 95.2143 32.8181 94.807 32.1953 94.153C31.5725 93.4989 31.2067 92.6421 31.165 91.74C31.1649 91.6399 31.2032 91.5437 31.2721 91.4711C31.3409 91.3985 31.4351 91.3551 31.535 91.35C31.6323 91.3525 31.725 91.3923 31.7938 91.4612C31.8627 91.53 31.9025 91.6227 31.905 91.72C31.9428 92.4398 32.2385 93.1219 32.7379 93.6416C33.2374 94.1612 33.9073 94.4837 34.625 94.55C34.8604 94.5843 35.0996 94.5843 35.335 94.55C34.9629 93.812 34.8168 92.9806 34.915 92.16C35.055 89.78 36.625 89.22 37.625 90C37.9436 90.2666 38.1829 90.6155 38.3169 91.0087C38.451 91.4019 38.4745 91.8243 38.385 92.23C38.2913 92.7537 38.0856 93.2509 37.7818 93.6875C37.478 94.1242 37.0834 94.4901 36.625 94.76C37.555 95.09 38.445 94.36 39.115 93.76C40.005 92.98 41.115 92.02 42.445 92.41C42.9297 92.5816 43.349 92.8996 43.645 93.32C43.8068 93.4025 43.9608 93.4996 44.105 93.61C44.2581 93.7889 44.4694 93.9081 44.7017 93.9465C44.934 93.9849 45.1725 93.9401 45.375 93.82C45.9488 93.3842 46.6547 93.1583 47.375 93.18C47.4236 93.1838 47.4711 93.1972 47.5145 93.2193C47.558 93.2415 47.5966 93.2721 47.6282 93.3093C47.6598 93.3464 47.6838 93.3895 47.6987 93.436C47.7135 93.4824 47.7191 93.5314 47.715 93.58C47.7049 93.6791 47.6562 93.7703 47.5795 93.8339C47.5029 93.8974 47.4043 93.9284 47.305 93.92C46.7614 93.9235 46.2341 94.1063 45.805 94.44C45.5372 94.6143 45.2245 94.7071 44.905 94.7071C44.5855 94.7071 44.2728 94.6143 44.005 94.44C43.9829 94.5964 43.9209 94.7445 43.825 94.87C43.6657 95.1511 43.4204 95.3738 43.1252 95.5052C42.8301 95.6366 42.5005 95.6698 42.185 95.6ZM42.445 94.9C42.665 94.98 42.975 94.81 43.255 94.43C43.355 94.31 43.255 94.08 43.185 93.95C42.555 93.8 41.835 94.67 42.445 94.9ZM35.625 92.15C35.5282 92.8704 35.6649 93.6029 36.015 94.24C36.4296 94.0334 36.7907 93.7335 37.07 93.364C37.3493 92.9944 37.5393 92.5652 37.625 92.11C37.6913 91.8378 37.6827 91.5527 37.5999 91.2851C37.5171 91.0174 37.3634 90.7772 37.155 90.59C36.625 90.17 35.765 90.47 35.625 92.15ZM49.355 97.53H30.625C30.526 97.5274 30.4319 97.4862 30.3627 97.4152C30.2936 97.3442 30.255 97.2491 30.255 97.15C30.255 97.0519 30.294 96.9578 30.3634 96.8884C30.4328 96.819 30.5269 96.78 30.625 96.78H49.355C49.4044 96.7787 49.4536 96.7872 49.4997 96.8052C49.5457 96.8232 49.5877 96.8503 49.6231 96.8848C49.6585 96.9193 49.6867 96.9605 49.7059 97.0061C49.7251 97.0516 49.735 97.1006 49.735 97.15C49.735 97.1999 49.7252 97.2493 49.7061 97.2954C49.687 97.3415 49.659 97.3834 49.6237 97.4187C49.5884 97.454 49.5465 97.482 49.5004 97.5011C49.4543 97.5202 49.4049 97.53 49.355 97.53Z" fill="#181818"/>
<path d="M25.895 43.11L20.755 39.5L15.605 43.11V21.93H25.895V43.11Z" fill="#FE6666"/>
<path d="M25.885 24.31V29.58C25.6986 29.7353 25.4672 29.8264 25.225 29.84C23.905 29.97 22.225 27.9 20.745 27.57C19.265 27.24 17.585 28.5 16.275 27.76C16.0157 27.6209 15.7904 27.4262 15.615 27.19V21.93L25.885 24.31Z" fill="#181818"/>
<path d="M35.225 13.84C35.225 15.3 33.095 16.4 32.665 17.71C32.235 19.02 33.285 21.22 32.465 22.35C31.645 23.48 29.255 23.14 28.115 23.98C26.975 24.82 26.625 27.17 25.225 27.61C23.825 28.05 22.225 26.37 20.755 26.37C19.285 26.37 17.625 28 16.275 27.61C14.925 27.22 14.525 24.8 13.385 24C12.245 23.2 9.87499 23.52 9.03499 22.37C8.19499 21.22 9.27499 19.1 8.83499 17.73C8.39499 16.36 6.27499 15.3 6.27499 13.84C6.27499 12.38 8.40499 11.28 8.83499 9.99999C9.26499 8.71999 8.21499 6.48999 9.03499 5.35999C9.85499 4.22999 12.245 4.56999 13.385 3.73999C14.525 2.90999 14.915 0.509992 16.275 0.0699925C17.635 -0.370008 19.275 1.30999 20.755 1.30999C22.235 1.30999 23.915 -0.360008 25.225 0.0699925C26.535 0.499992 26.975 2.87999 28.115 3.70999C29.255 4.53999 31.625 4.18999 32.465 5.32999C33.305 6.46999 32.225 8.60999 32.625 9.99999C33.025 11.39 35.225 12.39 35.225 13.84Z" fill="#FCD63F"/>
<path d="M20.755 21.93C25.223 21.93 28.845 18.308 28.845 13.84C28.845 9.37202 25.223 5.75 20.755 5.75C16.287 5.75 12.665 9.37202 12.665 13.84C12.665 18.308 16.287 21.93 20.755 21.93Z" fill="white"/>
<path d="M20.755 8.56L22.305 11.71L25.785 12.22L23.265 14.67L23.855 18.13L20.755 16.5L17.645 18.13L18.235 14.67L15.715 12.22L19.195 11.71L20.755 8.56Z" fill="#FCD63F"/>
<path d="M129.005 104.22H117.415V88.75H82.625V104.22H1.00499C0.950619 104.211 0.894956 104.214 0.841866 104.229C0.788775 104.244 0.739526 104.27 0.697532 104.305C0.655539 104.341 0.621805 104.385 0.59867 104.435C0.575536 104.485 0.563553 104.54 0.563553 104.595C0.563553 104.65 0.575536 104.705 0.59867 104.755C0.621805 104.805 0.655539 104.849 0.697532 104.885C0.739526 104.92 0.788775 104.946 0.841866 104.961C0.894956 104.976 0.950619 104.979 1.00499 104.97H129.005C129.094 104.955 129.175 104.91 129.233 104.841C129.292 104.772 129.324 104.685 129.324 104.595C129.324 104.505 129.292 104.418 129.233 104.349C129.175 104.28 129.094 104.235 129.005 104.22Z" fill="#181818"/>
<path d="M114.445 91.95H85.605V99.6H114.445V91.95Z" fill="white"/>
<path d="M87.775 66.39C84.492 63.1797 82.6119 58.8013 82.545 54.21V39.48C82.5539 39.4256 82.5509 39.37 82.5361 39.3169C82.5214 39.2638 82.4953 39.2145 82.4596 39.1725C82.4239 39.1305 82.3796 39.0968 82.3295 39.0737C82.2795 39.0505 82.2251 39.0386 82.17 39.0386C82.1149 39.0386 82.0605 39.0505 82.0104 39.0737C81.9604 39.0968 81.9161 39.1305 81.8804 39.1725C81.8447 39.2145 81.8186 39.2638 81.8038 39.3169C81.7891 39.37 81.7861 39.4256 81.795 39.48V54.21C81.8376 56.86 82.4624 59.4682 83.625 61.85L81.235 60.38C79.9634 59.587 78.8976 58.5041 78.125 57.22H79.125C79.1794 57.2289 79.235 57.2259 79.2881 57.2111C79.3412 57.1964 79.3905 57.1703 79.4325 57.1346C79.4744 57.0989 79.5082 57.0546 79.5313 57.0045C79.5545 56.9545 79.5664 56.9001 79.5664 56.845C79.5664 56.7899 79.5545 56.7355 79.5313 56.6854C79.5082 56.6354 79.4744 56.5911 79.4325 56.5554C79.3905 56.5197 79.3412 56.4936 79.2881 56.4789C79.235 56.4641 79.1794 56.4611 79.125 56.47H77.705C77.0531 55.1584 76.711 53.7147 76.705 52.25V48.13H79.085C79.1394 48.1389 79.195 48.1359 79.2481 48.1211C79.3012 48.1064 79.3505 48.0803 79.3925 48.0446C79.4344 48.0089 79.4682 47.9646 79.4913 47.9145C79.5145 47.8645 79.5264 47.8101 79.5264 47.755C79.5264 47.6999 79.5145 47.6455 79.4913 47.5954C79.4682 47.5454 79.4344 47.5011 79.3925 47.4654C79.3505 47.4297 79.3012 47.4036 79.2481 47.3889C79.195 47.3741 79.1394 47.3711 79.085 47.38H76.695V39H79.075C79.1294 39.0089 79.185 39.0059 79.2381 38.9911C79.2912 38.9764 79.3405 38.9503 79.3825 38.9146C79.4244 38.8789 79.4582 38.8346 79.4813 38.7845C79.5045 38.7345 79.5164 38.6801 79.5164 38.625C79.5164 38.5699 79.5045 38.5155 79.4813 38.4654C79.4582 38.4154 79.4244 38.3711 79.3825 38.3354C79.3405 38.2997 79.2912 38.2736 79.2381 38.2589C79.185 38.2441 79.1294 38.2411 79.075 38.25H76.695V36.81H82.165V36.06H76.325C76.2242 36.06 76.1276 36.1 76.0563 36.1713C75.985 36.2426 75.945 36.3392 75.945 36.44V38.29H49.785C49.7306 38.2811 49.675 38.2841 49.6219 38.2989C49.5688 38.3136 49.5195 38.3397 49.4775 38.3754C49.4355 38.4111 49.4018 38.4554 49.3787 38.5054C49.3555 38.5555 49.3436 38.6099 49.3436 38.665C49.3436 38.7201 49.3555 38.7745 49.3787 38.8245C49.4018 38.8746 49.4355 38.9189 49.4775 38.9546C49.5195 38.9903 49.5688 39.0164 49.6219 39.0311C49.675 39.0459 49.7306 39.0489 49.785 39.04H75.945V47.38H28.255C28.2006 47.3711 28.145 47.3741 28.0919 47.3889C28.0388 47.4036 27.9895 47.4297 27.9475 47.4654C27.9055 47.5011 27.8718 47.5454 27.8487 47.5954C27.8255 47.6455 27.8136 47.6999 27.8136 47.755C27.8136 47.8101 27.8255 47.8645 27.8487 47.9145C27.8718 47.9646 27.9055 48.0089 27.9475 48.0446C27.9895 48.0803 28.0388 48.1064 28.0919 48.1211C28.145 48.1359 28.2006 48.1389 28.255 48.13H75.945V52.25C75.9519 53.7078 76.2725 55.1471 76.885 56.47H28.255C28.2006 56.4611 28.145 56.4641 28.0919 56.4789C28.0388 56.4936 27.9895 56.5197 27.9475 56.5554C27.9055 56.5911 27.8718 56.6354 27.8487 56.6854C27.8255 56.7355 27.8136 56.7899 27.8136 56.845C27.8136 56.9001 27.8255 56.9545 27.8487 57.0045C27.8718 57.0546 27.9055 57.0989 27.9475 57.1346C27.9895 57.1703 28.0388 57.1964 28.0919 57.2111C28.145 57.2259 28.2006 57.2289 28.255 57.22H77.255C78.1066 58.7678 79.3431 60.0697 80.845 61L84.325 63.14C85.1328 64.5162 86.1179 65.7804 87.255 66.9C87.2875 66.9364 87.3277 66.9652 87.3726 66.9842C87.4176 67.0032 87.4662 67.012 87.515 67.01C87.6156 67.0086 87.712 66.9693 87.785 66.9C87.8469 66.8289 87.8801 66.7373 87.8783 66.6431C87.8764 66.5488 87.8396 66.4586 87.775 66.39Z" fill="#181818"/>
</g>
<defs>
<clipPath id="clip0_24_1377">
<rect width="128.75" height="104.97" fill="white" transform="translate(0.625)"/>
</clipPath>
</defs>
</svg>
